<?xml version="1.0" encoding="UTF-8" standalone="no"?>
<svg width="511px" height="113px" viewBox="0 0 511 113" version="1.1" xmlns="http://www.w3.org/2000/svg" xmlns:xlink="http://www.w3.org/1999/xlink">
    <!-- Generator: Sketch 43.1 (39012) - http://www.bohemiancoding.com/sketch -->
    <title>Desktop HD</title>
    <desc>Created with Sketch.</desc>
    <defs></defs>
    <g id="Page-1" stroke="none" stroke-width="1" fill="none" fill-rule="evenodd">
        <g id="Desktop-HD">
            <g id="LiveNetworks-logo-horizontal">
                <g id="XMLID_186_" fill="#446CA9">
                    <path d="M108.579981,87.125 C108.579981,76.34375 99.8908199,67.4791667 89.029368,67.4791667 C87.0984432,67.4791667 85.1675184,67.9583333 83.4779592,68.4375 L66.5823674,35.375 C71.4096793,31.78125 74.5474321,26.2708333 74.5474321,19.8020833 C74.5474321,9.02083333 65.8582706,0.15625 54.9968187,0.15625 C44.1353668,0.15625 35.2048397,8.78125 35.2048397,19.5625 C35.2048397,25.7916667 38.1012268,31.3020833 42.6871732,34.8958333 L25.5502158,68.1979167 C23.8606566,67.71875 22.1710974,67.4791667 20.4815382,67.4791667 C9.6200863,67.4791667 0.930924782,76.34375 0.930924782,87.125 C0.930924782,97.90625 9.6200863,106.770833 20.4815382,106.770833 C31.3429901,106.770833 40.0321516,97.90625 40.0321516,87.125 C40.0321516,80.65625 36.8943988,75.1458333 32.0670869,71.5520833 L48.9626787,38.4895833 C50.6522379,38.96875 52.5831627,39.4479167 54.5140875,39.4479167 C56.2036467,39.4479167 57.8932059,39.2083333 59.582765,38.7291667 L76.7197225,72.03125 C72.1337761,75.625 69.2373889,81.1354167 69.2373889,87.3645833 C69.2373889,98.1458333 77.9265505,107.010417 88.7880024,107.010417 C99.8908199,106.770833 108.579981,97.90625 108.579981,87.125 L108.579981,87.125 Z" id="XMLID_187_"></path>
                </g>
                <g id="XMLID_69_" opacity="0.7" transform="translate(131.751079, 91.437500)" fill-rule="nonzero" fill="#808285">
                    <polygon id="XMLID_70_" points="13.0337423 1.19791667 7.24096793 1.19791667 7.24096793 15.3333333 6.27550554 15.3333333 6.27550554 1.19791667 0.241365598 1.19791667 0.241365598 0.239583333 13.2751079 0.239583333 13.2751079 1.19791667"></polygon>
                    <path d="M23.8951942,15.3333333 L23.1710974,15.3333333 L23.1710974,13.8958333 C21.7229038,15.09375 20.0333446,15.5729167 18.3437854,15.5729167 C15.9301295,15.5729167 13.9992047,14.375 13.9992047,12.21875 C13.9992047,11.0208333 14.4819359,10.0625 15.4473983,9.58333333 C16.4128606,9.10416667 17.8610542,8.86458333 19.3092478,8.86458333 C20.5160758,8.86458333 21.9642694,8.86458333 23.1710974,9.10416667 L23.1710974,7.90625 C23.1710974,5.75 21.4815382,4.79166667 19.0678822,4.79166667 C17.6196886,4.79166667 16.4128606,5.03125 14.9646671,5.75 L14.4819359,5.03125 C15.9301295,4.3125 17.378323,3.83333333 19.0678822,3.83333333 C21.2401726,3.83333333 22.9297318,4.55208333 23.6538286,6.22916667 C23.8951942,6.70833333 23.8951942,6.94791667 23.8951942,7.42708333 L23.8951942,9.34375 L23.8951942,15.3333333 Z M23.1710974,9.82291667 C21.9642694,9.58333333 20.5160758,9.58333333 19.3092478,9.58333333 C16.1714951,9.58333333 14.7233015,10.5416667 14.7233015,12.21875 C14.7233015,13.1770833 14.9646671,13.65625 15.6887639,14.1354167 C16.4128606,14.6145833 17.1369574,14.8541667 18.3437854,14.8541667 C20.0333446,14.8541667 21.7229038,14.375 23.1710974,13.1770833 L23.1710974,9.82291667 Z" id="XMLID_72_"></path>
                    <path d="M27.7570437,0.479166667 L28.7225061,0.479166667 L28.7225061,2.15625 L27.7570437,2.15625 L27.7570437,0.479166667 Z M27.7570437,4.3125 L28.7225061,4.3125 L28.7225061,15.3333333 L27.7570437,15.3333333 L27.7570437,4.3125 Z" id="XMLID_75_"></path>
                    <polygon id="XMLID_78_" points="32.8257213 0.479166667 33.7911837 0.479166667 33.7911837 15.3333333 32.8257213 15.3333333"></polygon>
                    <path d="M42.7217108,4.07291667 C46.3421948,4.07291667 48.5144852,6.46875 48.5144852,9.82291667 C48.5144852,13.1770833 46.3421948,15.5729167 42.7217108,15.5729167 C39.1012268,15.5729167 36.9289365,13.1770833 36.9289365,9.82291667 C36.9289365,6.22916667 39.1012268,4.07291667 42.7217108,4.07291667 Z M42.7217108,4.79166667 C39.583958,4.79166667 37.8943988,6.70833333 37.8943988,9.82291667 C37.8943988,12.9375 39.8253236,14.8541667 42.9630764,14.8541667 C46.1008292,14.8541667 47.7903884,12.9375 47.7903884,9.82291667 C47.5490228,6.70833333 45.8594636,4.79166667 42.7217108,4.79166667 Z" id="XMLID_80_"></path>
                    <path d="M58.1691091,5.27083333 C57.6863779,5.03125 56.9622811,5.03125 56.2381843,5.03125 C54.5486251,5.03125 53.1004315,5.98958333 52.3763347,7.42708333 L52.3763347,15.3333333 L51.4108723,15.3333333 L51.4108723,4.3125 L52.3763347,4.3125 L52.3763347,6.46875 C53.5831627,5.03125 54.7899907,4.07291667 56.4795499,4.07291667 C57.2036467,4.07291667 57.9277435,4.3125 58.4104747,4.55208333 L58.1691091,5.27083333 Z" id="XMLID_83_"></path>
                    <path d="M60.582765,10.3020833 C60.8241306,13.1770833 62.5136898,14.8541667 65.410077,14.8541667 C66.8582706,14.8541667 68.5478298,14.375 69.5132922,13.1770833 L69.9960234,13.65625 C68.7891954,14.8541667 66.8582706,15.5729167 65.1687114,15.5729167 C61.5482274,15.5729167 59.3759371,13.1770833 59.3759371,9.82291667 C59.3759371,6.46875 61.5482274,3.83333333 65.1687114,3.83333333 C68.3064642,3.83333333 70.4787545,5.98958333 70.4787545,8.86458333 C70.4787545,9.34375 70.4787545,9.82291667 70.2373889,10.3020833 L60.582765,10.3020833 Z M65.1687114,4.79166667 C62.5136898,4.79166667 60.582765,6.70833333 60.3413994,9.58333333 L69.5132922,9.58333333 L69.5132922,8.86458333 C69.7546578,6.70833333 68.0650986,4.79166667 65.1687114,4.79166667 Z" id="XMLID_85_"></path>
                    <path d="M83.7538624,0.479166667 L83.7538624,15.3333333 L83.0297656,15.3333333 L83.0297656,12.6979167 C82.3056688,14.6145833 80.6161097,15.5729167 78.4438193,15.5729167 C75.3060665,15.5729167 73.1337761,13.4166667 73.1337761,9.82291667 C73.1337761,5.98958333 75.3060665,3.83333333 78.4438193,3.83333333 C80.6161097,3.83333333 82.3056688,5.03125 83.0297656,6.70833333 L83.0297656,0.239583333 L83.7538624,0.239583333 L83.7538624,0.479166667 Z M78.4438193,4.79166667 C75.7887977,4.79166667 73.8578729,6.46875 73.8578729,9.82291667 C73.8578729,12.9375 75.7887977,14.8541667 78.4438193,14.8541667 C81.3402064,14.8541667 83.0297656,12.9375 83.0297656,9.82291667 C83.0297656,6.46875 81.0988408,4.79166667 78.4438193,4.79166667 Z" id="XMLID_88_"></path>
                    <path d="M91.9602927,13.4166667 C92.9257551,14.375 94.6153143,14.8541667 96.3048735,14.8541667 C97.2703359,14.8541667 98.2357983,14.6145833 98.9598951,14.375 C99.6839919,14.1354167 100.166723,13.4166667 100.166723,12.6979167 C100.166723,12.21875 99.9253575,11.9791667 99.6839919,11.5 C98.9598951,11.0208333 98.2357983,10.5416667 96.5462391,10.3020833 L96.0635079,10.0625 C93.6498519,9.34375 92.2016583,8.86458333 91.9602927,6.94791667 C91.9602927,5.51041667 93.4084863,4.07291667 96.3048735,4.07291667 C97.9944327,4.07291667 99.6839919,4.55208333 100.89082,5.27083333 L100.408089,5.98958333 C99.2012607,5.27083333 97.7530671,4.79166667 96.3048735,4.79166667 C93.8912175,4.79166667 92.6843895,5.75 92.6843895,6.70833333 C92.6843895,8.14583333 93.8912175,8.625 96.3048735,9.10416667 C97.2703359,9.34375 97.9944327,9.58333333 98.7185295,9.82291667 C99.9253575,10.3020833 100.89082,11.0208333 100.89082,12.4583333 C100.89082,14.375 98.7185295,15.5729167 96.0635079,15.5729167 C94.1325831,15.5729167 92.2016583,14.8541667 91.236196,13.8958333 L91.9602927,13.4166667 Z" id="XMLID_91_"></path>
                    <path d="M109.338616,4.07291667 C112.9591,4.07291667 115.13139,6.46875 115.13139,9.82291667 C115.13139,13.1770833 112.9591,15.5729167 109.338616,15.5729167 C105.718132,15.5729167 103.545841,13.1770833 103.545841,9.82291667 C103.304476,6.22916667 105.476766,4.07291667 109.338616,4.07291667 Z M109.338616,4.79166667 C106.200863,4.79166667 104.511304,6.70833333 104.511304,9.82291667 C104.511304,12.9375 106.442229,14.8541667 109.579981,14.8541667 C112.717734,14.8541667 114.407293,12.9375 114.407293,9.82291667 C114.165928,6.70833333 112.235003,4.79166667 109.338616,4.79166667 Z" id="XMLID_93_"></path>
                    <polygon id="XMLID_96_" points="118.269143 0.479166667 119.234605 0.479166667 119.234605 15.3333333 118.269143 15.3333333"></polygon>
                    <path d="M132.992444,4.3125 L132.992444,15.3333333 L132.268348,15.3333333 L132.268348,13.4166667 C131.06152,15.09375 129.37196,15.8125 127.441036,15.8125 C126.234208,15.8125 125.02738,15.3333333 124.303283,14.6145833 C123.579186,13.8958333 123.096455,12.6979167 123.096455,11.5 L123.096455,4.55208333 L124.061917,4.55208333 L124.061917,11.2604167 C124.061917,13.65625 125.510111,15.09375 127.923767,15.09375 C129.613326,15.09375 131.302885,14.1354167 132.509713,12.4583333 L132.509713,4.55208333 L132.992444,4.55208333 L132.992444,4.3125 Z" id="XMLID_98_"></path>
                    <path d="M143.612531,14.8541667 C142.888434,15.3333333 141.922971,15.5729167 140.957509,15.5729167 C139.992047,15.5729167 139.026584,15.3333333 138.543853,14.8541667 C137.819756,14.1354167 137.578391,13.1770833 137.578391,11.9791667 L137.578391,5.27083333 L135.888832,5.27083333 L135.888832,4.55208333 L137.819756,4.55208333 L137.819756,1.4375 L138.543853,1.4375 L138.543853,4.55208333 L142.647068,4.55208333 L142.647068,5.27083333 L138.543853,5.27083333 L138.543853,11.7395833 C138.543853,12.9375 138.543853,13.65625 139.26795,14.375 C139.750681,14.8541667 140.233412,14.8541667 140.957509,14.8541667 C141.681606,14.8541667 142.647068,14.6145833 143.371165,14.1354167 L143.612531,14.8541667 Z" id="XMLID_100_"></path>
                    <path d="M146.267552,0.479166667 L147.233015,0.479166667 L147.233015,2.15625 L146.267552,2.15625 L146.267552,0.479166667 Z M146.267552,4.3125 L147.233015,4.3125 L147.233015,15.3333333 L146.267552,15.3333333 L146.267552,4.3125 Z" id="XMLID_102_"></path>
                    <path d="M156.163542,4.07291667 C159.784026,4.07291667 161.956316,6.46875 161.956316,9.82291667 C161.956316,13.1770833 159.784026,15.5729167 156.163542,15.5729167 C152.543058,15.5729167 150.370767,13.1770833 150.370767,9.82291667 C150.370767,6.22916667 152.543058,4.07291667 156.163542,4.07291667 Z M156.163542,4.79166667 C153.025789,4.79166667 151.33623,6.70833333 151.33623,9.82291667 C151.33623,12.9375 153.267155,14.8541667 156.404907,14.8541667 C159.54266,14.8541667 161.232219,12.9375 161.232219,9.82291667 C160.990854,6.70833333 159.301295,4.79166667 156.163542,4.79166667 Z" id="XMLID_105_"></path>
                    <path d="M174.990058,15.3333333 L174.024596,15.3333333 L174.024596,8.625 C174.024596,6.22916667 172.576402,4.79166667 170.162746,4.79166667 C168.473187,4.79166667 166.783628,5.75 165.5768,7.1875 L165.5768,15.3333333 L164.611338,15.3333333 L164.611338,4.3125 L165.335434,4.3125 L165.335434,6.22916667 C166.542262,4.55208333 168.231822,3.83333333 169.921381,3.83333333 C171.369574,3.83333333 172.335037,4.3125 173.059134,5.03125 C173.78323,5.75 174.265962,6.94791667 174.265962,8.14583333 L174.265962,15.3333333 L174.990058,15.3333333 Z" id="XMLID_108_"></path>
                    <path d="M178.369177,13.4166667 C179.334639,14.375 181.024198,14.8541667 182.713758,14.8541667 C183.67922,14.8541667 184.644682,14.6145833 185.368779,14.375 C186.092876,14.1354167 186.575607,13.4166667 186.575607,12.6979167 C186.575607,12.21875 186.334241,11.9791667 186.092876,11.5 C185.368779,11.0208333 184.644682,10.5416667 182.955123,10.3020833 L182.472392,10.0625 C180.058736,9.34375 178.610542,8.86458333 178.369177,6.94791667 C178.369177,5.51041667 179.81737,4.07291667 182.713758,4.07291667 C184.403317,4.07291667 186.092876,4.55208333 187.299704,5.27083333 L186.816973,5.98958333 C185.610145,5.27083333 184.161951,4.79166667 182.713758,4.79166667 C180.300102,4.79166667 179.093274,5.75 179.093274,6.70833333 C179.093274,8.14583333 180.300102,8.625 182.713758,9.10416667 C183.67922,9.34375 184.644682,9.58333333 185.127413,9.82291667 C186.334241,10.3020833 187.299704,11.0208333 187.299704,12.4583333 C187.299704,14.375 185.127413,15.5729167 182.472392,15.5729167 C180.541467,15.5729167 178.610542,14.8541667 177.64508,13.8958333 L178.369177,13.4166667 Z" id="XMLID_110_"></path>
                    <path d="M213.125823,15.3333333 L212.16036,15.3333333 L212.16036,8.625 C212.16036,7.42708333 211.918995,6.46875 211.194898,5.75 C210.470801,5.03125 209.505339,4.79166667 208.539876,4.79166667 C206.850317,4.79166667 205.402124,5.75 204.436661,7.1875 L204.436661,8.14583333 L204.436661,15.3333333 L203.471199,15.3333333 L203.471199,8.625 C203.471199,7.42708333 203.229833,6.46875 202.505737,5.75 C201.78164,5.03125 201.057543,4.79166667 199.850715,4.79166667 C199.126618,4.79166667 198.161156,5.03125 197.437059,5.51041667 C196.712962,5.98958333 196.230231,6.70833333 195.7475,7.1875 L195.7475,15.09375 L194.782037,15.09375 L194.782037,4.07291667 L195.506134,4.07291667 L195.506134,5.98958333 C196.712962,4.55208333 198.161156,3.59375 199.850715,3.59375 C201.057543,3.59375 202.264371,4.07291667 202.988468,4.79166667 C203.229833,5.03125 203.471199,5.51041667 203.712565,5.75 C204.919393,4.3125 206.367586,3.59375 208.057145,3.59375 C209.263973,3.59375 210.470801,4.07291667 211.194898,4.79166667 C211.918995,5.75 212.401726,6.70833333 212.401726,8.14583333 L212.401726,15.3333333 L213.125823,15.3333333 Z" id="XMLID_112_"></path>
                    <path d="M226.400931,15.3333333 L225.676834,15.3333333 L225.676834,13.8958333 C224.22864,15.09375 222.539081,15.5729167 220.849522,15.5729167 C218.435866,15.5729167 216.504941,14.375 216.504941,12.21875 C216.504941,11.0208333 216.987672,10.0625 217.953135,9.58333333 C218.918597,9.10416667 220.366791,8.86458333 221.814984,8.86458333 C223.021812,8.86458333 224.470006,8.86458333 225.676834,9.10416667 L225.676834,7.90625 C225.676834,5.75 223.987275,4.79166667 221.573619,4.79166667 C220.125425,4.79166667 218.918597,5.03125 217.470404,5.75 L217.229038,5.03125 C218.677232,4.3125 220.125425,3.83333333 221.814984,3.83333333 C223.987275,3.83333333 225.676834,4.55208333 226.400931,6.22916667 C226.642296,6.70833333 226.642296,6.94791667 226.642296,7.42708333 L226.642296,9.34375 L226.642296,15.3333333 L226.400931,15.3333333 Z M225.435468,9.82291667 C224.22864,9.58333333 223.021812,9.58333333 221.814984,9.58333333 C218.677232,9.58333333 217.229038,10.5416667 217.229038,12.21875 C217.229038,13.1770833 217.470404,13.65625 218.1945,14.1354167 C218.918597,14.6145833 219.642694,14.8541667 220.849522,14.8541667 C222.539081,14.8541667 224.22864,14.375 225.676834,13.1770833 L225.676834,9.82291667 L225.435468,9.82291667 Z" id="XMLID_114_"></path>
                    <path d="M240.15877,0.479166667 L240.15877,15.3333333 L239.434673,15.3333333 L239.434673,12.6979167 C238.710576,14.6145833 237.021017,15.5729167 234.848727,15.5729167 C231.710974,15.5729167 229.538683,13.4166667 229.538683,9.82291667 C229.538683,5.98958333 231.710974,3.83333333 234.848727,3.83333333 C237.021017,3.83333333 238.710576,5.03125 239.434673,6.70833333 L239.434673,0.239583333 L240.15877,0.239583333 L240.15877,0.479166667 Z M234.607361,4.79166667 C231.952339,4.79166667 230.021415,6.46875 230.021415,9.82291667 C230.021415,12.9375 231.952339,14.8541667 234.607361,14.8541667 C237.503748,14.8541667 239.193307,12.9375 239.193307,9.82291667 C239.193307,6.46875 237.262383,4.79166667 234.607361,4.79166667 Z" id="XMLID_117_"></path>
                    <path d="M243.779254,10.3020833 C244.020619,13.1770833 245.710179,14.8541667 248.606566,14.8541667 C250.054759,14.8541667 251.744318,14.375 252.709781,13.1770833 L253.192512,13.65625 C251.985684,14.8541667 250.054759,15.5729167 248.3652,15.5729167 C244.744716,15.5729167 242.572426,13.1770833 242.572426,9.82291667 C242.572426,6.46875 244.744716,3.83333333 248.3652,3.83333333 C251.502953,3.83333333 253.675243,5.98958333 253.675243,8.86458333 C253.675243,9.34375 253.675243,9.82291667 253.433878,10.3020833 L243.779254,10.3020833 Z M248.606566,4.79166667 C245.951544,4.79166667 244.020619,6.70833333 243.779254,9.58333333 L252.951146,9.58333333 L252.951146,8.86458333 C253.192512,6.70833333 251.261587,4.79166667 248.606566,4.79166667 Z" id="XMLID_120_"></path>
                    <path d="M267.433082,15.5729167 C265.260792,15.5729167 263.571233,14.6145833 262.847136,12.6979167 L262.847136,15.3333333 L262.123039,15.3333333 L262.123039,0.479166667 L263.088502,0.479166667 L263.088502,6.94791667 C264.053964,5.03125 265.743523,4.07291667 267.674448,4.07291667 C270.812201,4.07291667 272.984491,6.22916667 272.984491,9.82291667 C272.743125,13.4166667 270.329469,15.5729167 267.433082,15.5729167 Z M267.433082,4.79166667 C264.778061,4.79166667 262.847136,6.46875 262.847136,9.82291667 C262.847136,12.9375 264.536695,14.8541667 267.433082,14.8541667 C270.088104,14.8541667 272.019029,12.9375 272.019029,9.82291667 C272.019029,6.46875 270.088104,4.79166667 267.433082,4.79166667 Z" id="XMLID_123_"></path>
                    <path d="M285.535502,4.3125 L285.535502,14.8541667 C285.535502,16.53125 285.052771,17.7291667 284.087309,18.6875 C283.121846,19.6458333 281.673653,20.125 279.984093,20.125 C278.5359,20.125 277.329072,19.8854167 275.880878,19.1666667 L276.122244,18.4479167 C277.329072,18.9270833 278.5359,19.40625 279.742728,19.40625 C281.190921,19.40625 282.397749,18.9270833 283.121846,18.2083333 C284.087309,17.4895833 284.328674,16.2916667 284.328674,14.8541667 L284.328674,13.1770833 C283.121846,14.6145833 281.673653,15.5729167 279.742728,15.5729167 C278.5359,15.5729167 277.329072,15.09375 276.363609,14.375 C275.639513,13.65625 275.156781,12.4583333 275.156781,11.2604167 L275.156781,4.55208333 L276.122244,4.55208333 L276.122244,11.2604167 C276.122244,13.65625 277.570437,15.09375 279.984093,15.09375 C281.673653,15.09375 283.363212,14.1354167 284.328674,12.4583333 L284.328674,4.55208333 L285.535502,4.55208333 L285.535502,4.3125 Z" id="XMLID_126_"></path>
                    <path d="M303.637922,15.3333333 L302.913825,15.3333333 L302.913825,13.8958333 C301.465632,15.09375 299.776072,15.5729167 298.086513,15.5729167 C295.672857,15.5729167 293.741932,14.375 293.741932,12.21875 C293.741932,11.0208333 294.224664,10.0625 295.190126,9.58333333 C296.155588,9.10416667 297.603782,8.86458333 299.051976,8.86458333 C300.258804,8.86458333 301.706997,8.86458333 302.913825,9.10416667 L302.913825,7.90625 C302.913825,5.75 301.224266,4.79166667 298.81061,4.79166667 C297.362416,4.79166667 296.155588,5.03125 294.707395,5.75 L294.466029,5.03125 C295.914223,4.3125 297.362416,3.83333333 299.051976,3.83333333 C301.224266,3.83333333 302.913825,4.55208333 303.637922,6.22916667 C303.879288,6.70833333 303.879288,6.94791667 303.879288,7.42708333 L303.879288,9.34375 L303.879288,15.3333333 L303.637922,15.3333333 Z M302.67246,9.82291667 C301.465632,9.58333333 300.258804,9.58333333 299.051976,9.58333333 C295.914223,9.58333333 294.466029,10.5416667 294.466029,12.21875 C294.466029,13.1770833 294.707395,13.65625 295.431492,14.1354167 C296.155588,14.6145833 296.879685,14.8541667 298.086513,14.8541667 C299.776072,14.8541667 301.465632,14.375 302.913825,13.1770833 L302.913825,9.82291667 L302.67246,9.82291667 Z" id="XMLID_128_"></path>
                    <path d="M314.016643,5.27083333 C313.533911,5.03125 312.809815,5.03125 312.085718,5.03125 C310.396159,5.03125 308.947965,5.98958333 308.223868,7.42708333 L308.223868,15.3333333 L307.258406,15.3333333 L307.258406,4.3125 L308.223868,4.3125 L308.223868,6.46875 C309.430696,5.03125 310.637524,4.07291667 312.327084,4.07291667 C313.05118,4.07291667 313.775277,4.3125 314.258008,4.55208333 L314.016643,5.27083333 Z" id="XMLID_131_"></path>
                    <path d="M323.671267,14.8541667 C322.94717,15.3333333 321.981707,15.5729167 321.016245,15.5729167 C320.050783,15.5729167 319.08532,15.3333333 318.602589,14.8541667 C317.878492,14.1354167 317.637127,13.1770833 317.637127,11.9791667 L317.637127,5.27083333 L315.706202,5.27083333 L315.706202,4.55208333 L317.637127,4.55208333 L317.637127,1.4375 L318.361223,1.4375 L318.361223,4.55208333 L322.464439,4.55208333 L322.464439,5.27083333 L318.602589,5.27083333 L318.602589,11.7395833 C318.602589,12.9375 318.602589,13.65625 319.326686,14.375 C319.809417,14.8541667 320.292148,14.8541667 321.016245,14.8541667 C321.740342,14.8541667 322.705804,14.6145833 323.429901,14.1354167 L323.671267,14.8541667 Z" id="XMLID_133_"></path>
                    <path d="M326.326288,0.479166667 L327.291751,0.479166667 L327.291751,2.15625 L326.326288,2.15625 L326.326288,0.479166667 Z M326.567654,4.3125 L327.533116,4.3125 L327.533116,15.3333333 L326.567654,15.3333333 L326.567654,4.3125 Z" id="XMLID_135_"></path>
                    <path d="M330.912235,13.4166667 C331.877697,14.375 333.567256,14.8541667 335.256815,14.8541667 C336.222278,14.8541667 337.18774,14.6145833 337.911837,14.375 C338.635934,14.1354167 339.118665,13.4166667 339.118665,12.6979167 C339.118665,12.21875 338.877299,11.9791667 338.635934,11.5 C337.911837,11.0208333 337.18774,10.5416667 335.498181,10.3020833 L335.01545,10.0625 C332.601794,9.34375 331.1536,8.86458333 330.912235,6.94791667 C330.912235,5.51041667 332.360428,4.07291667 335.256815,4.07291667 C336.946374,4.07291667 338.635934,4.55208333 339.842762,5.27083333 L339.36003,5.98958333 C338.153202,5.27083333 336.705009,4.79166667 335.256815,4.79166667 C332.843159,4.79166667 331.636331,5.75 331.636331,6.70833333 C331.636331,8.14583333 332.843159,8.625 335.256815,9.10416667 C336.222278,9.34375 337.18774,9.58333333 337.670471,9.82291667 C338.877299,10.3020833 339.842762,11.0208333 339.842762,12.4583333 C339.842762,14.375 337.670471,15.5729167 335.01545,15.5729167 C333.084525,15.5729167 331.1536,14.8541667 330.188138,13.8958333 L330.912235,13.4166667 Z" id="XMLID_138_"></path>
                    <path d="M352.393773,15.3333333 L351.669676,15.3333333 L351.669676,13.8958333 C350.221482,15.09375 348.531923,15.5729167 346.842364,15.5729167 C344.428708,15.5729167 342.497783,14.375 342.497783,12.21875 C342.497783,11.0208333 342.980514,10.0625 343.945977,9.58333333 C344.911439,9.10416667 346.359633,8.86458333 347.807826,8.86458333 C349.014654,8.86458333 350.462848,8.86458333 351.669676,9.10416667 L351.669676,7.90625 C351.669676,5.75 349.980117,4.79166667 347.566461,4.79166667 C346.118267,4.79166667 344.911439,5.03125 343.463246,5.75 L343.22188,5.03125 C344.670074,4.3125 346.118267,3.83333333 347.807826,3.83333333 C349.980117,3.83333333 351.669676,4.55208333 352.393773,6.22916667 C352.635138,6.70833333 352.635138,6.94791667 352.635138,7.42708333 L352.635138,9.34375 L352.635138,15.3333333 L352.393773,15.3333333 Z M351.42831,9.82291667 C350.221482,9.58333333 349.014654,9.58333333 347.807826,9.58333333 C344.670074,9.58333333 343.22188,10.5416667 343.22188,12.21875 C343.22188,13.1770833 343.463246,13.65625 344.187342,14.1354167 C344.911439,14.6145833 345.635536,14.8541667 346.842364,14.8541667 C348.531923,14.8541667 350.221482,14.375 351.669676,13.1770833 L351.669676,9.82291667 L351.42831,9.82291667 Z" id="XMLID_140_"></path>
                    <path d="M366.151612,15.3333333 L365.186149,15.3333333 L365.186149,8.625 C365.186149,6.22916667 363.737956,4.79166667 361.3243,4.79166667 C359.634741,4.79166667 357.945181,5.75 356.738353,7.1875 L356.738353,15.3333333 L355.772891,15.3333333 L355.772891,4.3125 L356.496988,4.3125 L356.496988,6.22916667 C357.703816,4.55208333 359.393375,3.83333333 361.082934,3.83333333 C362.531128,3.83333333 363.49659,4.3125 364.220687,5.03125 C364.944784,5.75 365.427515,6.94791667 365.427515,8.14583333 L365.427515,15.3333333 L366.151612,15.3333333 Z" id="XMLID_143_"></path>
                    <path d="M369.53073,13.4166667 C370.496193,14.375 372.185752,14.8541667 373.875311,14.8541667 C374.840773,14.8541667 375.806236,14.6145833 376.530333,14.375 C377.254429,14.1354167 377.737161,13.4166667 377.737161,12.6979167 C377.737161,12.21875 377.495795,11.9791667 377.254429,11.5 C376.530333,11.0208333 375.806236,10.5416667 374.116677,10.3020833 L373.633945,10.0625 C371.220289,9.34375 369.772096,8.86458333 369.53073,6.94791667 C369.53073,5.51041667 370.978924,4.07291667 373.875311,4.07291667 C375.56487,4.07291667 377.254429,4.55208333 378.461257,5.27083333 L377.978526,5.98958333 C376.771698,5.27083333 375.323505,4.79166667 373.875311,4.79166667 C371.461655,4.79166667 370.254827,5.75 370.254827,6.70833333 C370.254827,8.14583333 371.461655,8.625 373.875311,9.10416667 C374.840773,9.34375 375.806236,9.58333333 376.288967,9.82291667 C377.495795,10.3020833 378.461257,11.0208333 378.461257,12.4583333 C378.461257,14.375 376.288967,15.5729167 373.633945,15.5729167 C371.703021,15.5729167 369.772096,14.8541667 368.806633,13.8958333 L369.53073,13.4166667 Z" id="XMLID_145_"></path>
                </g>
                <g id="XMLID_40_" transform="translate(131.751079, 34.937500)" fill-rule="nonzero" fill="#446CA9">
                    <polygon id="XMLID_41_" points="0.965462391 0.677083333 5.06867755 0.677083333 5.06867755 37.8125 29.9293341 37.8125 29.9293341 41.8854167 0.965462391 41.8854167"></polygon>
                    <path d="M36.2048397,9.78125 C34.2739149,9.78125 33.5498181,8.82291667 33.5498181,7.14583333 C33.5498181,5.46875 34.5152805,4.51041667 36.2048397,4.51041667 C37.8943988,4.51041667 38.8598612,5.46875 38.8598612,7.14583333 C38.8598612,8.82291667 38.1357644,9.78125 36.2048397,9.78125 Z M34.0325493,41.8854167 L34.0325493,13.1354167 L38.1357644,13.1354167 L38.1357644,42.125 L34.0325493,42.125 L34.0325493,41.8854167 Z" id="XMLID_43_"></path>
                    <polygon id="XMLID_46_" points="56.2381843 36.8541667 66.1341738 13.1354167 70.7201201 13.1354167 58.4104747 42.125 53.8245283 42.125 41.5148828 13.1354167 46.1008292 13.1354167"></polygon>
                    <path d="M92.9257551,37.8125 C96.5462391,37.8125 98.4771639,35.8958333 98.4771639,32.3020833 L102.580379,32.3020833 C102.580379,38.7708333 99.4426263,41.8854167 92.9257551,41.8854167 L83.2711312,41.8854167 C76.7542601,41.8854167 73.6165073,38.7708333 73.6165073,32.3020833 L73.6165073,22.71875 C73.6165073,16.25 76.7542601,13.1354167 83.2711312,13.1354167 L92.9257551,13.1354167 C99.4426263,13.1354167 102.580379,15.7708333 102.580379,21.28125 C102.580379,25.3541667 101.132185,27.5104167 98.4771639,28.2291667 L77.7197225,33.0208333 C77.9610881,36.375 79.6506473,38.0520833 83.2711312,38.0520833 L92.9257551,38.0520833 L92.9257551,37.8125 Z M83.2711312,17.2083333 C79.6506473,17.2083333 77.7197225,19.125 77.7197225,22.71875 L77.7197225,28.7083333 L97.2703359,24.15625 C97.9944327,23.9166667 98.4771639,23.4375 98.4771639,22.71875 C98.4771639,19.125 96.5462391,17.2083333 92.9257551,17.2083333 L83.2711312,17.2083333 Z" id="XMLID_48_"></path>
                    <polygon id="XMLID_51_" points="144.336627 34.21875 144.336627 0.677083333 148.439843 0.677083333 148.439843 41.8854167 144.336627 41.8854167 123.579186 8.34375 123.579186 41.8854167 119.475971 41.8854167 119.475971 0.677083333 123.579186 0.677083333"></polygon>
                    <path d="M171.369574,37.8125 C174.990058,37.8125 176.920983,35.8958333 176.920983,32.3020833 L181.024198,32.3020833 C181.024198,38.7708333 177.886446,41.8854167 171.369574,41.8854167 L161.714951,41.8854167 C155.198079,41.8854167 152.060327,38.7708333 152.060327,32.3020833 L152.060327,22.71875 C152.060327,16.25 155.198079,13.1354167 161.714951,13.1354167 L171.369574,13.1354167 C177.886446,13.1354167 181.024198,15.7708333 181.024198,21.28125 C181.024198,25.3541667 179.576005,27.5104167 176.920983,28.2291667 L156.163542,33.0208333 C156.404907,36.375 158.094467,38.0520833 161.714951,38.0520833 L171.369574,38.0520833 L171.369574,37.8125 Z M161.473585,17.2083333 C157.853101,17.2083333 155.922176,19.125 155.922176,22.71875 L155.922176,28.7083333 L175.47279,24.15625 C176.196886,23.9166667 176.679618,23.4375 176.679618,22.71875 C176.679618,19.125 174.748693,17.2083333 171.128209,17.2083333 L161.473585,17.2083333 Z" id="XMLID_53_"></path>
                    <path d="M192.127016,32.3020833 C192.127016,35.8958333 194.057941,37.8125 197.678425,37.8125 L200.333446,37.8125 L200.333446,41.8854167 L197.678425,41.8854167 C191.161553,41.8854167 188.023801,38.7708333 188.023801,32.3020833 L188.023801,17.2083333 L183.920585,17.2083333 L183.920585,13.1354167 L188.023801,13.1354167 L188.023801,6.1875 L192.127016,6.1875 L192.127016,13.1354167 L199.126618,13.1354167 L199.126618,17.2083333 L192.127016,17.2083333 L192.127016,32.3020833 Z" id="XMLID_56_"></path>
                    <polygon id="XMLID_58_" points="214.332651 41.8854167 203.95393 12.8958333 208.298511 12.8958333 216.746307 36.1354167 225.194103 12.8958333 230.021415 12.8958333 238.469211 36.1354167 246.917007 12.8958333 251.261587 12.8958333 240.882867 41.8854167 236.055555 41.8854167 227.607759 18.6458333 219.159963 41.8854167 214.332651 41.8854167"></polygon>
                    <path d="M254.39934,22.71875 C254.39934,16.25 257.537093,13.1354167 264.053964,13.1354167 L273.708588,13.1354167 C280.225459,13.1354167 283.363212,16.25 283.363212,22.71875 L283.363212,32.3020833 C283.363212,38.7708333 280.225459,41.8854167 273.708588,41.8854167 L264.053964,41.8854167 C257.537093,41.8854167 254.39934,38.7708333 254.39934,32.3020833 L254.39934,22.71875 Z M264.053964,17.2083333 C260.43348,17.2083333 258.502555,19.125 258.502555,22.71875 L258.502555,32.3020833 C258.502555,35.8958333 260.43348,37.8125 264.053964,37.8125 L273.708588,37.8125 C277.329072,37.8125 279.259997,35.8958333 279.259997,32.3020833 L279.259997,22.71875 C279.259997,19.125 277.329072,17.2083333 273.708588,17.2083333 L264.053964,17.2083333 Z" id="XMLID_60_"></path>
                    <path d="M301.465632,13.1354167 L312.568449,13.1354167 L312.568449,17.2083333 L301.465632,17.2083333 C294.94876,17.2083333 291.811008,20.3229167 291.811008,26.7916667 L291.811008,41.8854167 L287.707793,41.8854167 L287.707793,26.7916667 C287.707793,17.6875 292.293739,13.1354167 301.465632,13.1354167 Z" id="XMLID_63_"></path>
                    <polygon id="XMLID_65_" points="329.705407 27.5104167 345.635536 39.96875 345.635536 41.8854167 341.532321 41.8854167 326.326288 30.1458333 320.774879 34.4583333 320.774879 41.8854167 316.671664 41.8854167 316.671664 0.677083333 320.774879 0.677083333 320.774879 29.1875 341.532321 13.1354167 345.635536 13.1354167 345.635536 15.0520833"></polygon>
                    <path d="M349.980117,41.8854167 L349.980117,37.8125 L370.737558,37.8125 C373.39258,37.8125 374.840773,36.375 374.840773,33.7395833 C374.840773,31.1041667 373.39258,29.6666667 370.737558,29.6666667 L358.186547,29.6666667 C352.635138,29.6666667 349.980117,27.03125 349.980117,21.5208333 C349.980117,16.0104167 352.635138,13.375 358.186547,13.375 L378.943988,13.375 L378.943988,17.4479167 L358.186547,17.4479167 C355.531526,17.4479167 354.083332,18.8854167 354.083332,21.5208333 C354.083332,24.15625 355.531526,25.59375 358.186547,25.59375 L370.737558,25.59375 C376.288967,25.59375 378.943988,28.2291667 378.943988,33.7395833 C378.943988,39.25 376.288967,41.8854167 370.737558,41.8854167 L349.980117,41.8854167 Z" id="XMLID_67_"></path>
                </g>
            </g>
        </g>
    </g>
</svg>